<?xml version="1.0" standalone="no"?>
<!DOCTYPE svg PUBLIC "-//W3C//DTD SVG 20010904//EN"
 "http://www.w3.org/TR/2001/REC-SVG-20010904/DTD/svg10.dtd">
<svg version="1.0" xmlns="http://www.w3.org/2000/svg"
 width="300.000000pt" height="300.000000pt" viewBox="0 0 300.000000 300.000000"
 preserveAspectRatio="xMidYMid meet">
<metadata>
Created by potrace 1.11, written by Peter Selinger 2001-2013
</metadata>
<g transform="translate(0.000000,300.000000) scale(0.100000,-0.100000)"
fill="#000000" stroke="none">
<path d="M1180 2563 c0 -5 9 -51 20 -103 11 -52 27 -129 35 -170 8 -41 24
-120 36 -175 11 -55 25 -118 30 -140 10 -48 11 -91 3 -82 -4 4 -13 37 -19 74
-7 38 -23 115 -35 173 -34 163 -47 228 -66 328 -19 98 -24 104 -72 78 -15 -8
-67 -34 -117 -56 -49 -23 -117 -55 -150 -70 -133 -63 -236 -110 -241 -110 -13
0 -80 -71 -144 -150 -99 -122 -168 -207 -238 -291 -34 -40 -62 -76 -62 -80 0
-4 12 -12 28 -18 15 -6 61 -29 102 -52 41 -22 102 -55 135 -72 77 -40 56 -47
-27 -9 -35 17 -94 44 -133 61 -38 17 -78 36 -87 41 -21 12 -48 13 -48 3 0 -10
-28 -158 -46 -248 -8 -38 -23 -113 -34 -165 -10 -52 -23 -115 -29 -140 -6 -25
-10 -51 -11 -58 0 -10 301 -12 1488 -10 1315 3 1487 5 1485 18 -2 17 -37 177
-58 265 -19 83 -53 229 -66 293 -7 28 -17 52 -23 52 -6 0 -38 -13 -71 -29
-144 -70 -238 -112 -248 -108 -5 1 63 39 152 82 88 44 161 83 161 87 0 3 -24
35 -53 70 -113 135 -215 258 -277 336 -36 44 -68 81 -71 81 -6 1 -103 -114
-172 -204 -16 -20 -31 -34 -34 -31 -3 2 38 59 91 125 53 67 96 123 96 126 0 5
-49 29 -285 140 -38 18 -119 56 -178 85 -60 28 -110 50 -112 48 -1 -2 -7 -21
-13 -43 l-11 -40 5 48 5 47 -320 0 c-177 0 -321 -3 -321 -7z"/>
<path d="M115 868 c-3 -7 -4 -112 -3 -233 l3 -220 55 0 55 0 3 88 c2 78 5 87
22 87 24 0 20 4 135 -157 13 -19 25 -23 74 -23 41 0 60 4 64 14 5 13 -62 126
-101 170 -13 15 -14 20 -4 24 40 13 65 49 70 100 6 64 -10 105 -52 135 -28 20
-45 22 -173 25 -114 3 -144 1 -148 -10z m249 -125 c11 -26 -21 -43 -81 -43
-52 0 -53 0 -53 30 l0 30 64 0 c51 0 65 -3 70 -17z"/>
<path d="M696 846 c-9 -19 -16 -39 -16 -46 0 -10 -12 -41 -55 -135 -7 -16 -17
-42 -20 -58 -4 -15 -11 -30 -16 -33 -5 -3 -9 -13 -9 -22 -1 -9 -9 -35 -20 -57
-11 -22 -19 -50 -20 -62 0 -21 4 -23 59 -23 57 0 59 1 75 34 9 19 16 41 16 50
0 14 11 16 77 14 l77 -3 11 -35 c16 -56 22 -60 86 -60 56 0 59 1 59 24 0 14
-4 27 -9 30 -5 3 -12 18 -16 33 -3 16 -13 42 -20 58 -39 88 -55 125 -55 132
-1 4 -9 26 -20 48 -11 22 -19 45 -20 51 0 5 -9 29 -20 52 -20 42 -21 42 -74
42 -51 0 -54 -2 -70 -34z m94 -213 c0 -7 -12 -13 -26 -13 -21 0 -25 3 -19 18
4 9 10 28 13 42 l5 25 13 -30 c7 -16 13 -36 14 -42z"/>
<path d="M1060 644 l0 -236 133 4 c136 3 165 12 205 58 57 66 71 214 28 298
-47 92 -91 112 -251 112 l-115 0 0 -236z m247 86 c14 -27 17 -108 7 -159 -7
-33 -13 -36 -91 -44 l-43 -5 0 122 0 121 57 -5 c49 -4 59 -9 70 -30z"/>
<path d="M1535 870 c-4 -6 -6 -85 -5 -177 1 -188 11 -224 75 -263 31 -19 47
-22 125 -18 86 3 90 4 125 38 19 19 40 50 45 70 15 52 13 333 -2 348 -18 18
-105 15 -112 -4 -3 -9 -6 -81 -6 -160 0 -81 -5 -154 -10 -165 -12 -22 -78 -27
-98 -7 -8 8 -12 60 -12 168 0 108 -4 160 -12 168 -15 15 -104 16 -113 2z"/>
<path d="M2104 855 c-89 -53 -126 -148 -106 -265 12 -67 41 -114 94 -151 25
-18 49 -24 115 -27 89 -5 147 10 197 49 25 19 26 26 26 114 0 75 -3 94 -16 99
-9 3 -56 6 -105 6 -97 0 -102 -3 -101 -58 0 -64 -1 -62 52 -62 57 0 65 -13 19
-29 -52 -18 -95 -13 -126 13 -24 21 -28 32 -31 94 -4 68 -3 73 26 102 23 22
40 30 67 30 42 0 75 -15 75 -34 0 -30 28 -40 73 -26 23 6 47 16 53 21 19 16
-21 85 -68 119 -37 27 -48 30 -122 30 -68 0 -87 -4 -122 -25z"/>
<path d="M2625 826 c-14 -30 -25 -58 -25 -63 -1 -4 -9 -26 -20 -48 -11 -22
-19 -48 -20 -57 0 -9 -4 -19 -9 -22 -5 -3 -12 -18 -16 -33 -3 -15 -14 -45 -24
-68 -54 -122 -53 -128 30 -123 54 3 54 3 70 48 l17 45 71 3 71 3 22 -51 22
-50 58 0 c50 0 58 3 58 19 0 17 -37 127 -60 176 -26 57 -50 115 -50 120 0 8
-38 94 -55 125 -11 21 -22 26 -64 28 l-51 3 -25 -55z m85 -155 c0 -11 5 -23
10 -26 18 -11 10 -22 -15 -22 -26 0 -29 7 -19 45 8 27 24 29 24 3z"/>
</g>
</svg>
